<svg width="30" height="30" viewBox="0 0 30 30" fill="none" xmlns="http://www.w3.org/2000/svg">
<g clip-path="url(#clip0_2_53)">
<path d="M0.959473 2.19252C0.705005 2.19252 0.460959 2.07702 0.281023 1.87141C0.101087 1.66581 0 1.38695 0 1.09619C0 0.80542 0.101087 0.526562 0.281023 0.320959C0.460959 0.115356 0.705005 -0.00015009 0.959473 -0.00015009H3.45459H3.5498C4.36885 -0.0177599 5.17633 0.222558 5.88379 0.694475C6.67667 1.27334 7.23871 2.18506 7.44873 3.23307C7.52686 3.62641 7.60986 4.01975 7.69287 4.41309H29.0527C29.1786 4.41272 29.3033 4.44074 29.4197 4.49553C29.5361 4.55032 29.6419 4.63081 29.731 4.7324C29.8202 4.83398 29.8909 4.95465 29.9391 5.08751C29.9874 5.22037 30.0122 5.3628 30.0122 5.50664C30.0123 5.62214 29.9966 5.73696 29.9658 5.84698L27.4707 17.3181C27.4204 17.5561 27.3016 17.768 27.1334 17.9197C26.9652 18.0715 26.7573 18.1543 26.543 18.155H10.9033C11.2549 19.6084 11.5771 20.3867 12.0508 20.7605C12.605 21.1845 13.5913 21.2152 15.2246 21.1845H15.2417H26.2695C26.524 21.1845 26.768 21.3 26.948 21.5056C27.1279 21.7112 27.229 21.9901 27.229 22.2809C27.229 22.5716 27.1279 22.8505 26.948 23.0561C26.768 23.2617 26.524 23.3772 26.2695 23.3772H15.249C13.23 23.419 11.9824 23.3521 10.9863 22.5849C9.99024 21.8178 9.43359 20.4787 8.89404 18.0378L5.5957 3.81052C5.50326 3.30013 5.24058 2.85089 4.86328 2.55797C4.45108 2.30255 3.98672 2.17737 3.51807 2.19531H0.959473V2.19252ZM23.4375 24.6437C23.9011 24.6437 24.3542 24.8008 24.7396 25.095C25.125 25.3893 25.4255 25.8076 25.6028 26.2969C25.7802 26.7863 25.8267 27.3247 25.7362 27.8442C25.6458 28.3637 25.4226 28.8409 25.0948 29.2155C24.767 29.59 24.3494 29.8451 23.8947 29.9484C23.4401 30.0517 22.9689 29.9987 22.5406 29.796C22.1123 29.5933 21.7463 29.25 21.4887 28.8096C21.2312 28.3692 21.0938 27.8514 21.0938 27.3218C21.0938 26.6115 21.3407 25.9303 21.7802 25.4281C22.2198 24.9259 22.8159 24.6437 23.4375 24.6437ZM13.1592 24.6437C13.6227 24.6437 14.0759 24.8008 14.4613 25.095C14.8467 25.3893 15.1471 25.8076 15.3245 26.2969C15.5019 26.7863 15.5483 27.3247 15.4579 27.8442C15.3675 28.3637 15.1442 28.8409 14.8165 29.2155C14.4887 29.59 14.0711 29.8451 13.6164 29.9484C13.1618 30.0517 12.6905 29.9987 12.2623 29.796C11.834 29.5933 11.468 29.25 11.2104 28.8096C10.9529 28.3692 10.8154 27.8514 10.8154 27.3218C10.8154 26.6115 11.0624 25.9303 11.5019 25.4281C11.9414 24.9259 12.5376 24.6437 13.1592 24.6437ZM19.043 6.60297V10.6006H26.9653L27.8272 6.61692L19.043 6.60297ZM19.043 12.7793V15.9623H25.8032L26.4917 12.7793H19.043ZM17.1167 15.9623V12.7793H9.67529C9.93083 13.8394 10.175 14.9004 10.4077 15.9623H17.1167ZM17.1167 10.5866V6.60297H8.18848C8.49609 7.93085 8.81836 9.25873 9.14307 10.5866H17.1167Z" fill="white"/>
</g>
<defs>
<clipPath id="clip0_2_53">
<rect width="30" height="30" fill="white"/>
</clipPath>
</defs>
</svg>
