<svg width="43" height="43" viewBox="0 0 43 43" fill="none" xmlns="http://www.w3.org/2000/svg">
<g clip-path="url(#clip0_3_73)">
<path fill-rule="evenodd" clip-rule="evenodd" d="M20.4108 3.19992C23.0652 3.91117 24.3581 7.70472 23.2958 11.6693C22.2335 15.6338 19.2171 18.2727 16.5626 17.5615C13.9082 16.8502 12.6146 13.0594 13.6777 9.09211C14.7428 5.12831 17.7564 2.48866 20.4108 3.19992ZM21.8669 22.2205C27.4947 23.7403 27.2212 27.5623 30.3013 35.0548C31.4551 40.2147 27.6182 42.2445 22.679 39.6118C20.6077 37.7859 19.0396 36.9175 17.339 36.5208C14.3926 35.8375 13.1528 37.5163 9.79105 36.474C7.18892 35.7031 6.29531 34.3166 6.50373 32.6238C6.72249 30.8247 7.7021 29.9135 8.92204 28.7041C13.6645 23.9947 18.2024 20.4896 21.8669 22.2205ZM8.2694 11.3614C6.07927 11.5943 4.63655 14.4484 5.04556 17.7339C5.45457 21.0193 7.56071 23.4945 9.75083 23.2615C11.941 23.0286 13.3837 20.1745 12.9747 16.8891C12.5657 13.6036 10.4595 11.1285 8.2694 11.3614ZM38.0274 19.335C39.8076 20.6318 39.63 23.8249 37.633 26.4657C35.6361 29.1064 32.5717 30.1962 30.7943 28.9001C29.0141 27.6034 29.1917 24.4102 31.1887 21.7695C33.1856 19.1287 36.2471 18.0382 38.0274 19.335ZM31.5331 6.07102C34.1875 6.78227 35.4803 10.5758 34.418 14.5404C33.3557 18.5049 30.3393 21.1438 27.6849 20.4326C25.0305 19.7213 23.7369 15.9305 24.7999 11.9632C25.8651 7.99941 28.8786 5.35976 31.5331 6.07102Z" fill="#FFFF99"/>
</g>
<defs>
<clipPath id="clip0_3_73">
<rect width="35" height="35" fill="white" transform="translate(9.12564 0.0669632) rotate(15)"/>
</clipPath>
</defs>
</svg>
