<svg width="20" height="20" viewBox="0 0 20 20" fill="none" xmlns="http://www.w3.org/2000/svg">
<g clip-path="url(#clip0_2_55)">
<path fill-rule="evenodd" clip-rule="evenodd" d="M2.45133 1.40072H4.7912V0H5.51535V1.40072H6.96385V17.9434H2.45133V1.40072ZM0.946678 2.62614H1.59458V17.859C1.59458 18.3757 2.13308 18.7987 2.79072 18.7987H6.67129C7.32956 18.7987 7.86764 18.3755 7.86764 17.859V2.62614H19.0529C19.5742 2.62614 19.9998 2.96094 19.9998 3.37028V19.2563C19.9998 19.6657 19.574 20 19.0529 20H0.946678C0.42558 20 0 19.6655 0 19.2563V3.37028C0 2.96077 0.425788 2.62614 0.946678 2.62614ZM10.268 3.72233H17.4604C17.8642 3.72233 18.1937 3.98096 18.1937 4.29736V6.89355C18.1937 7.21061 17.8642 7.4694 17.4604 7.4694H10.268C9.8648 7.4694 9.53536 7.21061 9.53536 6.89355V4.29736C9.53536 3.98096 9.8646 3.72233 10.268 3.72233ZM12.0975 10.5125C12.5782 10.5125 12.968 10.8188 12.968 11.1965C12.968 11.5739 12.5782 11.8804 12.0975 11.8804C11.6169 11.8804 11.2275 11.5739 11.2275 11.1965C11.2275 10.8188 11.6166 10.5125 12.0975 10.5125ZM14.7389 16.7013C15.2196 16.7013 15.6093 17.0078 15.6093 17.3853C15.6093 17.7629 15.2196 18.0692 14.7389 18.0692C14.2586 18.0692 13.8685 17.7629 13.8685 17.3853C13.8685 17.0078 14.2584 16.7013 14.7389 16.7013ZM17.3802 14.6385C17.8605 14.6385 18.2506 14.9448 18.2506 15.3224C18.2506 15.6999 17.8605 16.0059 17.3802 16.0059C16.8995 16.0059 16.5094 15.6999 16.5094 15.3224C16.5094 14.9448 16.8995 14.6385 17.3802 14.6385ZM14.7389 14.6385C15.2196 14.6385 15.6093 14.9448 15.6093 15.3224C15.6093 15.6999 15.2196 16.0059 14.7389 16.0059C14.2586 16.0059 13.8685 15.6999 13.8685 15.3224C13.8685 14.9448 14.2584 14.6385 14.7389 14.6385ZM12.0975 14.6385C12.5782 14.6385 12.968 14.9448 12.968 15.3224C12.968 15.6999 12.5782 16.0059 12.0975 16.0059C11.6169 16.0059 11.2275 15.6999 11.2275 15.3224C11.2275 14.9448 11.6166 14.6385 12.0975 14.6385ZM17.3802 12.5758C17.8605 12.5758 18.2506 12.8818 18.2506 13.2593C18.2506 13.6367 17.8605 13.9432 17.3802 13.9432C16.8995 13.9432 16.5094 13.6367 16.5094 13.2593C16.5094 12.8818 16.8995 12.5758 17.3802 12.5758ZM14.7389 12.5758C15.2196 12.5758 15.6093 12.8818 15.6093 13.2593C15.6093 13.6367 15.2196 13.9432 14.7389 13.9432C14.2586 13.9432 13.8685 13.6367 13.8685 13.2593C13.8685 12.8818 14.2584 12.5758 14.7389 12.5758ZM12.0975 12.5758C12.5782 12.5758 12.968 12.8818 12.968 13.2593C12.968 13.6367 12.5782 13.9432 12.0975 13.9432C11.6169 13.9432 11.2275 13.6367 11.2275 13.2593C11.2275 12.8818 11.6166 12.5758 12.0975 12.5758ZM17.3802 10.5125C17.8605 10.5125 18.2506 10.8188 18.2506 11.1965C18.2506 11.5739 17.8605 11.8804 17.3802 11.8804C16.8995 11.8804 16.5094 11.5739 16.5094 11.1965C16.5094 10.8188 16.8995 10.5125 17.3802 10.5125ZM14.7389 10.5125C15.2196 10.5125 15.6093 10.8188 15.6093 11.1965C15.6093 11.5739 15.2196 11.8804 14.7389 11.8804C14.2586 11.8804 13.8685 11.5739 13.8685 11.1965C13.8685 10.8188 14.2584 10.5125 14.7389 10.5125Z" fill="black"/>
</g>
<defs>
<clipPath id="clip0_2_55">
<rect width="20" height="20" fill="white"/>
</clipPath>
</defs>
</svg>
